<?xml version="1.0" encoding="utf-8"?>
<!-- Generator: Adobe Illustrator 16.0.3, SVG Export Plug-In . SVG Version: 6.00 Build 0)  -->
<!DOCTYPE svg PUBLIC "-//W3C//DTD SVG 1.1//EN" "http://www.w3.org/Graphics/SVG/1.1/DTD/svg11.dtd">
<svg version="1.1" id="Capa_2" xmlns="http://www.w3.org/2000/svg" xmlns:xlink="http://www.w3.org/1999/xlink" x="0px" y="0px"
	 width="456px" height="456px" viewBox="-161.784 -159.641 456 456" enable-background="new -161.784 -159.641 456 456"
	 xml:space="preserve">
<circle cx="66.217" cy="68.359" r="228"/>
<g>
	<g>
		<g>
			<path fill="#1C6AA2" d="M104.813,112.779H24.162c0,0-51.444-28.983,16.263-82.695L93.969-2.611c0,0,60.952-27.488,24.836-56
				c0,0,54.045,30.205-26.274,68.005c0,0-78.662,40.485-40.163,70.825c0,0,29.21,25.465,74.675,5.174L104.813,112.779z"/>
			<path fill="#FFFFFF" d="M85.207-8.709c0.341-11.383-7.82-16.72-7.82-16.72c-6.554-3.176-6.801-6.168-6.801-6.168
				c1.523-6.293-6.476-7.162-6.476-7.162c11.867,7.019-5.807,9.848-5.807,9.848c-13.563,5.592-0.832,7.061-0.832,7.061
				c12.154,4.834,8.294,12.038,8.294,12.038c-2.372,2.697-3.978,10.245-3.978,10.245l0.332,11.341
				c3.9,9.585,0.996,18.202,0.996,18.202C61.252,40.961,45.86,58.624,45.86,58.624c-4.083,4.623,2.947,12.962,3.996,14.152
				c0.864-1.811,2.46-4.19,5.371-7.231c0,0,3.873-8.054,7.038-14.38c0,0,7.458-19.276,9.553-18.84
				c0.171-5.993,5.83-18.594,5.83-18.594C86.969-1.052,85.207-8.709,85.207-8.709z"/>
			<path fill="#EF931F" d="M49.841,72.747c0,0-8.297-9.149-3.985-14.125c0,0,15.432-17.705,17.255-28.649
				c0,0,2.827-8.655-0.996-18.202L61.784,0.43c0,0,1.661-7.56,3.982-10.246c0,0,3.984-7.261-8.298-12.038
				c0,0-12.447-1.489,0.832-7.06c0,0,17.669-2.705,5.811-9.849c0,0,7.969,0.896,6.476,7.162c0,0,0.164,2.984,6.797,6.168
				c0,0,8.128,5.273,7.802,16.611c0,0,1.659,7.66-7.47,22.381c0,0-5.802,12.532-5.973,18.502c0,0,5.473,21.983,8.798,28.549
				c0,0,1.823,8.062-2.988,12.136c0,0-2.473,11.794,1.671,19.253c0,0,2.602,1.038,13.223,1.235c0,0-0.457-9.05,3.531-12.034V68.866
				c0,0,3.147-0.594,3.147-8.556c0,0,2.656-23.176-4.312-35.609c0,0-4.649-28.15,0.327-39.092c0,0-0.823-8.952-16.921-14.125v-7.856
				c0,0,8.629-2.686,4.808-5.371l-3.312-3.35c0,0,3.148-1.791,1.16-2.519l-5.429-0.794c0,0-11.77-10.015-23.613,2.653
				c0,0-8.077,6.166,7.854,11.405c0,0,2.82,2.455-5.476,3.516c0,0-21.244,0.133-20.855,12.301c0,0,0.28,8.886-4.367,16.048
				c0,0-10.176,10.939-9.957,18.135c0,0-1.215,2.852-4.756,4.277c0,0-7.52,2.287-1.878,7.856c0,0,0.551,0.795,3.646,1.162
				c0,0,6.251-0.069,4.259-2.755c0,0,0.221-1.322-1.436-0.862c0,0-2.988,0.134-1.496-0.994c0,0,4.481-3.481,4.206-0.498
				c0,0-0.613,2.09,0.996,2.519c0,0,3.26,0.365,2.986-3.513c0,0-0.055-1.638-1.494-2.561c0,0-1.273-3.277,0.168-5.796
				c0,0,8.852-8.887,9.515-14.392c0,0,1.215-6.795,7.413-13.627c0,0,9.626-8.022,7.962,0.827l-2.268,4.742
				c0,0,5.532,4.213,5.477,10.447c0,0-1.549,8.719-5.477,16.379c0,0-3.095,9.583-4.424,17.573c0,0-1.271,5.801-1.271,12.763
				c0,0,0.665,7.628-0.665,10.809c0,0-1.66,7.359,8.516,17.24C49.013,77.259,48.72,73.645,49.841,72.747z"/>
			<path fill="#EF931F" d="M106.586-69.872c0,0,9.953-0.994,12.605,4.245l0.448,6.5c0,0,6.078,12.665,6.078,20.822l-2.538,2.322
				c0,0-8.969-0.73-27.332,17.641c0,0-3.317-5.439-6.974-6.7c0,0,15.273-11.671,22.137-13.26c0,0,4.31-17.441,3.754-19.696
				c0,0-7.359-3.449-6.914-6.2c0,0-0.938-1.923-1.438-2.189c0,0,0.442-2.886,3.712,1.258c0,0,0.992,0.762,0.829-0.462
				c0,0-0.442-2.718-3.656-2.985C107.297-68.577,104.862-69.206,106.586-69.872z"/>
			<path fill="#FFFFFF" d="M123.18-35.982c0,0-8.969-0.73-27.332,17.641c0,0-3.317-5.439-6.974-6.7l-1.147,0.97l0.016,0.01
				c6.931,4.684,7.401,9.674,7.401,9.674s26.677-21.351,29.915-21.452c0,0,0.73-0.923,0.663-2.462L123.18-35.982z"/>
			<g>
				<polygon fill="#FFFFFF" points="25.349,24.694 25.353,24.696 25.356,24.673 				"/>
				<path fill="#FFFFFF" d="M49.12-12.698c1.665-8.853-7.962-0.827-7.962-0.827C34.96-6.693,33.745,0.102,33.745,0.102
					c-0.664,5.506-9.518,14.392-9.518,14.392c-1.439,2.519-0.168,5.796-0.168,5.796c1.438,0.923,1.496,2.561,1.496,2.561
					c0.026,0.322,0.018,0.605-0.004,0.872c0.229-1.154,0.617-3.083,0.892-4.457c0,0-0.955-1.692,1.081-3.604
					c0,0,2.335-2.92,5.932-4.942c0,0,4.087-3.779,5.64-7.229c0,0,5.115-9.565,7.756-11.448L49.12-12.698z"/>
			</g>
			<path fill="#FFFFFF" d="M78.04-44.818c0,0,4.948-2.861-0.438-2.256l-2.45,0.191c0,0-2.475-0.256-3.254-2.213
				c0,0-5.64-2.917-12.89,1.825c0,0-8.629,5.67-3.095,6.931c0,0,9.127-0.963,11.284,0.862c0,0,6.834,0.263,12.687-1.759
				C79.883-41.24,80.961-42.069,78.04-44.818z"/>
			
				<linearGradient id="SVGID_1_" gradientUnits="userSpaceOnUse" x1="338.7832" y1="-130.2358" x2="345.2558" y2="-135.667" gradientTransform="matrix(1 0 0 -1 -242 -203)">
				<stop  offset="0.0683" style="stop-color:#88BAD3"/>
				<stop  offset="0.2106" style="stop-color:#5A96BD"/>
				<stop  offset="0.3426" style="stop-color:#377DAD"/>
				<stop  offset="0.4492" style="stop-color:#226FA5"/>
				<stop  offset="0.5171" style="stop-color:#1C6AA2"/>
				<stop  offset="0.6853" style="stop-color:#1B679F"/>
				<stop  offset="0.7626" style="stop-color:#1B5F96"/>
				<stop  offset="0.8214" style="stop-color:#1A5386"/>
				<stop  offset="0.8707" style="stop-color:#184272"/>
				<stop  offset="0.9142" style="stop-color:#162F5A"/>
				<stop  offset="0.9535" style="stop-color:#131C41"/>
				<stop  offset="0.9889" style="stop-color:#0E0C2A"/>
				<stop  offset="1" style="stop-color:#0D0722"/>
			</linearGradient>
			<path fill="url(#SVGID_1_)" d="M100.019-73.02c2.715,0,4.919,1.329,4.919,2.972c0,1.641-2.204,2.971-4.919,2.971
				c-2.714,0-4.917-1.331-4.917-2.971C95.102-71.69,97.305-73.02,100.019-73.02z"/>
			
				<linearGradient id="SVGID_2_" gradientUnits="userSpaceOnUse" x1="327.3428" y1="-125.4087" x2="333.0866" y2="-131.1522" gradientTransform="matrix(1 0 0 -1 -242 -203)">
				<stop  offset="0.0683" style="stop-color:#88BAD3"/>
				<stop  offset="0.2106" style="stop-color:#5A96BD"/>
				<stop  offset="0.3426" style="stop-color:#377DAD"/>
				<stop  offset="0.4492" style="stop-color:#226FA5"/>
				<stop  offset="0.5171" style="stop-color:#1C6AA2"/>
				<stop  offset="0.6853" style="stop-color:#1B679F"/>
				<stop  offset="0.7626" style="stop-color:#1B5F96"/>
				<stop  offset="0.8214" style="stop-color:#1A5386"/>
				<stop  offset="0.8707" style="stop-color:#184272"/>
				<stop  offset="0.9142" style="stop-color:#162F5A"/>
				<stop  offset="0.9535" style="stop-color:#131C41"/>
				<stop  offset="0.9889" style="stop-color:#0E0C2A"/>
				<stop  offset="1" style="stop-color:#0D0722"/>
			</linearGradient>
			<ellipse fill="url(#SVGID_2_)" cx="88.215" cy="-74.72" rx="4.933" ry="2.94"/>
			
				<linearGradient id="SVGID_3_" gradientUnits="userSpaceOnUse" x1="315.3721" y1="-122.3887" x2="320.5769" y2="-127.5935" gradientTransform="matrix(1 0 0 -1 -242 -203)">
				<stop  offset="0.0683" style="stop-color:#88BAD3"/>
				<stop  offset="0.2106" style="stop-color:#5A96BD"/>
				<stop  offset="0.3426" style="stop-color:#377DAD"/>
				<stop  offset="0.4492" style="stop-color:#226FA5"/>
				<stop  offset="0.5171" style="stop-color:#1C6AA2"/>
				<stop  offset="0.6853" style="stop-color:#1B679F"/>
				<stop  offset="0.7626" style="stop-color:#1B5F96"/>
				<stop  offset="0.8214" style="stop-color:#1A5386"/>
				<stop  offset="0.8707" style="stop-color:#184272"/>
				<stop  offset="0.9142" style="stop-color:#162F5A"/>
				<stop  offset="0.9535" style="stop-color:#131C41"/>
				<stop  offset="0.9889" style="stop-color:#0E0C2A"/>
				<stop  offset="1" style="stop-color:#0D0722"/>
			</linearGradient>
			<path fill="url(#SVGID_3_)" d="M75.977-80.658c2.473,0,4.477,1.186,4.477,2.649c0,1.464-2.004,2.649-4.477,2.649
				c-2.477,0-4.48-1.185-4.48-2.649C71.496-79.472,73.5-80.658,75.977-80.658z"/>
		</g>
		<g opacity="0.6">
			
				<image overflow="visible" enable-background="new    " width="329" height="383" xlink:href="375D4C16.png"  transform="matrix(0.9512 0 0 0.5847 -95.7715 -57.4551)">
			</image>
		</g>
		<g opacity="0.7">
			
				<image overflow="visible" enable-background="new    " width="342" height="392" xlink:href="375D4C1A.png"  transform="matrix(0.9459 0 0 0.5849 -52.21 -142.3726)">
			</image>
		</g>
		<g>
			
				<image overflow="visible" enable-background="new    " width="329" height="363" xlink:href="375D4C1D.png"  transform="matrix(0.9483 0 0 0.5811 -119.3652 -97.4092)">
			</image>
		</g>
	</g>
	<g>
		<path fill="#1B6AA2" d="M-78.42,160.337h-8.405l-7.468-11.114h-29.523l-6.983,11.114h-8.448l26.503-39.114h7.691L-78.42,160.337z
			 M-96.874,145.285l-11.023-16.893c-0.297-0.471-0.64-1.329-1.023-2.574h-0.225c-0.328,1.145-0.695,2.002-1.111,2.574
			l-10.888,16.893H-96.874z"/>
		<path fill="#1B6AA2" d="M-73.973,151.34c2.343,0.995,7.133,3.847,10.14,4.671c4.076,1.115,8.5,0.995,12.248,0.995
			c12.183,0,18.278-2.071,18.278-6.214c0-1.163-0.633-2.197-1.896-3.107c-1.26-0.907-2.962-1.697-5.107-2.361
			c-2.148-0.665-6.371-1.756-12.68-3.273c-9.083-2.173-14.835-4.067-17.251-5.685c-2.416-1.615-3.625-3.442-3.625-5.482
			c0-3.146,2.74-5.666,8.221-7.552c5.481-1.887,12.363-2.825,20.66-2.825c8.362,0,14.29,0.462,17.786,1.385l0.709,7.209
			c-4.908-1.582-11.935-4.605-19.686-4.605c-5.301,0-9.625,0.527-12.977,1.581c-3.352,1.05-5.028,2.526-5.028,4.433
			c0,1.179,0.585,2.203,1.757,3.071c1.171,0.866,2.764,1.618,4.787,2.261c2.019,0.639,5.947,1.643,11.789,3.006
			c8.218,1.901,13.97,3.758,17.251,5.569c3.279,1.809,4.92,3.839,4.92,6.079c0,3.333-2.598,5.907-7.79,7.728
			c-5.191,1.817-12.455,2.727-21.791,2.727c-2.849,0-6.553-0.216-11.113-0.659c-4.559-0.432-7.76-0.966-9.595-1.591v-7.358H-73.973z
			"/>
		<path fill="#1B6AA2" d="M29.529,160.337h-41.882v-39.831h8.943v35.821h32.939V160.337z"/>
		<path fill="#1B6AA2" d="M32.741,141.187c0-6.282,3.1-11.301,9.306-15.059c6.201-3.756,14.588-5.635,25.157-5.635
			c9.804,0,17.701,1.836,23.689,5.51c5.992,3.669,8.98,8.405,8.98,14.201c0,6.248-3.019,11.27-9.068,15.06
			c-6.056,3.787-14.317,5.685-24.794,5.685c-10.016,0-18.072-1.841-24.152-5.535C35.78,151.726,32.741,146.984,32.741,141.187z
			 M40.968,140.782c0,4.702,2.265,8.586,6.801,11.659c4.531,3.077,10.595,4.612,18.193,4.612c8.124,0,14.436-1.452,18.961-4.357
			c4.522-2.906,6.772-6.853,6.772-11.838c0-5.156-2.181-9.185-6.552-12.08c-4.371-2.9-10.542-4.348-18.542-4.348
			c-7.78,0-13.998,1.549-18.658,4.635C43.292,132.166,40.968,136.067,40.968,140.782z"/>
		<path fill="#1B6AA2" d="M165.248,157.597c-7.469,2.208-15.788,3.317-24.933,3.317c-10.602,0-19.184-1.802-25.737-5.419
			c-6.56-3.614-9.837-8.348-9.837-14.202c0-6.005,3.656-10.946,10.95-14.829c7.296-3.881,16.53-5.823,27.713-5.823
			c8.254,0,16.461,1.565,21.844,2.958v5.933c-5.992-1.991-14.542-4.939-22.859-4.939c-8.467,0-15.421,1.513-20.85,4.541
			c-5.431,3.028-8.146,6.969-8.146,11.835c0,4.967,2.496,8.877,7.488,11.747c4.996,2.867,11.859,4.303,20.586,4.303
			c6.026,0,11.199-0.63,15.515-1.891v-11.14h-16.477v-3.926h24.742V157.597L165.248,157.597z"/>
		<path fill="#1B6AA2" d="M268.665,158.597c-5.525,1.549-12.419,2.315-20.677,2.315c-10.53,0-19.007-1.8-25.447-5.412
			c-6.435-3.612-9.665-8.275-9.665-14.003c0-6.012,3.544-10.996,10.609-14.961c7.07-3.962,16.253-5.941,27.555-5.941
			c7.101,0,12.975,0.536,17.625,1.611v7.514c-5.389-1.543-11.333-5.198-17.821-5.198c-8.909,0-16.019,1.563-21.332,4.685
			c-5.308,3.126-7.967,7.136-7.967,12.041c0,4.649,2.486,8.447,7.459,11.377c4.974,2.943,11.637,4.414,20,4.414
			c7.556,0,14.102-3.629,19.661-5.378V158.597z"/>
		<g>
			<path fill="#1B6AA2" d="M193.649,160.354h-7.812v-39.521h7.812V160.354z"/>
			<rect x="175.546" y="120.833" fill="#1B6AA2" width="28.776" height="4.188"/>
			<rect x="175.546" y="156.688" fill="#1B6AA2" width="28.776" height="3.667"/>
		</g>
	</g>
</g>
</svg>
