<?xml version="1.0" encoding="utf-8"?>
<!-- Generator: Adobe Illustrator 16.0.3, SVG Export Plug-In . SVG Version: 6.00 Build 0)  -->
<!DOCTYPE svg PUBLIC "-//W3C//DTD SVG 1.1//EN" "http://www.w3.org/Graphics/SVG/1.1/DTD/svg11.dtd">
<svg version="1.1" id="Capa_2" xmlns="http://www.w3.org/2000/svg" xmlns:xlink="http://www.w3.org/1999/xlink" x="0px" y="0px"
	 width="456px" height="456px" viewBox="0 0 456 456" enable-background="new 0 0 456 456" xml:space="preserve">
<path fill="#1C6AA2" d="M274.651,431.395H166.43c0,0-69.027-63.174,21.822-180.27l71.854-71.27c0,0,81.787-59.917,33.32-122.077
	c0,0,72.52,65.844-35.254,148.245c0,0-105.549,88.255-53.89,154.393c0,0,39.192,55.506,100.202,11.273L274.651,431.395z"/>
<linearGradient id="SVGID_1_" gradientUnits="userSpaceOnUse" x1="163.5078" y1="195.5415" x2="256.5903" y2="249.2827">
	<stop  offset="0" style="stop-color:#FFFFFF"/>
	<stop  offset="0.2927" style="stop-color:#FDFDFD"/>
	<stop  offset="0.4303" style="stop-color:#F5F5F5"/>
	<stop  offset="0.5355" style="stop-color:#E8E8E8"/>
	<stop  offset="0.6243" style="stop-color:#D6D6D6"/>
	<stop  offset="0.7027" style="stop-color:#BEBEBE"/>
	<stop  offset="0.7738" style="stop-color:#A1A1A1"/>
	<stop  offset="0.8394" style="stop-color:#7E7E7E"/>
	<stop  offset="0.9007" style="stop-color:#555555"/>
	<stop  offset="0.9563" style="stop-color:#282828"/>
	<stop  offset="1" style="stop-color:#000000"/>
</linearGradient>
<path fill="#FFFFFF" stroke="url(#SVGID_1_)" stroke-miterlimit="10" d="M248.345,166.561c0.456-24.813-10.493-36.448-10.493-36.448
	c-8.795-6.922-9.125-13.444-9.125-13.444c2.039-13.717-8.688-15.612-8.688-15.612c15.921,15.303-7.794,21.467-7.794,21.467
	c-18.201,12.191-1.114,15.394-1.114,15.394c16.311,10.535,11.132,26.238,11.132,26.238c-3.184,5.875-5.341,22.334-5.341,22.334
	l0.443,24.724c5.233,20.892,1.336,39.677,1.336,39.677c-2.5,23.946-23.156,62.45-23.156,62.45
	c-5.48,10.082,3.955,28.259,5.362,30.849c1.161-3.951,3.302-9.135,7.207-15.763c0,0,5.194-17.557,9.44-31.35
	c0,0,10.008-42.019,12.817-41.072c0.23-13.06,7.825-40.534,7.825-40.534C250.709,183.252,248.345,166.561,248.345,166.561z"/>
<path fill="#EF931F" d="M200.89,344.131c0,0-11.133-19.945-5.344-30.791c0,0,20.709-38.598,23.156-62.45
	c0,0,3.787-18.867-1.336-39.677l-0.443-24.724c0,0,2.225-16.478,5.341-22.334c0,0,5.347-15.83-11.132-26.238
	c0,0-16.702-3.25,1.114-15.394c0,0,23.715-5.892,7.794-21.467c0,0,10.689,1.952,8.688,15.612c0,0,0.22,6.504,9.125,13.444
	c0,0,10.907,11.493,10.468,36.21c0,0,2.228,16.698-10.022,48.789c0,0-7.788,27.32-8.019,40.332c0,0,7.348,47.92,11.809,62.23
	c0,0,2.447,17.572-4.01,26.457c0,0-3.323,25.709,2.243,41.968c0,0,3.491,2.264,17.737,2.699c0,0-0.613-19.729,4.738-26.233v-26.891
	c0,0,4.225-1.294,4.225-18.652c0,0,3.569-50.519-5.787-77.624c0,0-6.237-61.363,0.44-85.218c0,0-1.105-19.513-22.706-30.792v-17.126
	c0,0,11.579-5.857,6.452-11.712l-4.444-7.302c0,0,4.225-3.902,1.557-5.49l-7.285-1.735c0,0-15.798-21.828-31.687,5.784
	c0,0-10.834,13.442,10.541,24.864c0,0,3.784,5.348-7.349,7.663c0,0-28.502,0.288-27.984,26.814c0,0,0.375,19.37-5.862,34.984
	c0,0-13.657,23.849-13.36,39.535c0,0-1.633,6.214-6.384,9.324c0,0-10.092,4.988-2.521,17.129c0,0,0.742,1.735,4.896,2.535
	c0,0,8.389-0.15,5.718-6.005c0,0,0.296-2.883-1.926-1.876c0,0-4.009,0.291-2.007-2.167c0,0,6.009-7.59,5.643-1.086
	c0,0-0.82,4.556,1.334,5.493c0,0,4.376,0.797,4.007-7.66c0,0-0.076-3.569-2.005-5.578c0,0-1.708-7.145,0.223-12.639
	c0,0,11.877-19.368,12.768-31.368c0,0,1.633-14.816,9.946-29.709c0,0,12.917-17.488,10.687,1.805l-3.042,10.336
	c0,0,7.424,9.183,7.348,22.774c0,0-2.075,19.005-7.348,35.708c0,0-4.156,20.889-5.936,38.306c0,0-1.708,12.646-1.708,27.824
	c0,0,0.891,16.625-0.889,23.563c0,0-2.228,16.044,11.429,37.589C199.776,353.964,199.388,346.08,200.89,344.131z"/>
<path fill="#EF931F" d="M277.026,33.238c0,0,13.36-2.167,16.919,9.25l0.603,14.17c0,0,8.155,27.606,8.155,45.39l-3.406,5.061
	c0,0-12.034-1.593-36.674,38.454c0,0-4.45-11.856-9.356-14.605c0,0,20.494-25.444,29.703-28.91c0,0,5.781-38.021,5.042-42.935
	c0,0-9.875-7.513-9.282-13.515c0,0-1.258-4.191-1.929-4.77c0,0,0.592-6.292,4.974,2.744c0,0,1.332,1.664,1.111-1.012
	c0,0-0.592-5.925-4.9-6.504C277.985,36.058,274.72,34.685,277.026,33.238z"/>
<linearGradient id="SVGID_2_" gradientUnits="userSpaceOnUse" x1="285.499" y1="131.3032" x2="268.8137" y2="114.6179">
	<stop  offset="0" style="stop-color:#000000"/>
	<stop  offset="0.0055" style="stop-color:#0C0C0C"/>
	<stop  offset="0.0473" style="stop-color:#353535"/>
	<stop  offset="0.0942" style="stop-color:#606060"/>
	<stop  offset="0.1446" style="stop-color:#878787"/>
	<stop  offset="0.1993" style="stop-color:#A7A7A7"/>
	<stop  offset="0.2596" style="stop-color:#C3C3C3"/>
	<stop  offset="0.3274" style="stop-color:#D9D9D9"/>
	<stop  offset="0.4064" style="stop-color:#EAEAEA"/>
	<stop  offset="0.5034" style="stop-color:#F6F6F6"/>
	<stop  offset="0.6385" style="stop-color:#FDFDFD"/>
	<stop  offset="1" style="stop-color:#FFFFFF"/>
</linearGradient>
<path fill="#FFFFFF" stroke="url(#SVGID_2_)" stroke-miterlimit="10" d="M299.297,107.11c0,0-12.034-1.593-36.674,38.454
	c0,0-4.45-11.856-9.356-14.605l-1.541,2.112l0.016,0.02c9.304,10.208,9.933,21.088,9.933,21.088s35.794-46.545,40.139-46.765
	c0,0,0.98-2.01,0.891-5.365L299.297,107.11z"/>
<g>
	<linearGradient id="SVGID_3_" gradientUnits="userSpaceOnUse" x1="167.3389" y1="237.3457" x2="169.498" y2="238.5923">
		<stop  offset="0" style="stop-color:#FFFFFF"/>
		<stop  offset="0.2927" style="stop-color:#FDFDFD"/>
		<stop  offset="0.4303" style="stop-color:#F5F5F5"/>
		<stop  offset="0.5355" style="stop-color:#E8E8E8"/>
		<stop  offset="0.6243" style="stop-color:#D6D6D6"/>
		<stop  offset="0.7027" style="stop-color:#BEBEBE"/>
		<stop  offset="0.7738" style="stop-color:#A1A1A1"/>
		<stop  offset="0.8394" style="stop-color:#7E7E7E"/>
		<stop  offset="0.9007" style="stop-color:#555555"/>
		<stop  offset="0.9563" style="stop-color:#282828"/>
		<stop  offset="1" style="stop-color:#000000"/>
	</linearGradient>
	<path fill="#FFFFFF" stroke="url(#SVGID_3_)" stroke-miterlimit="10" d="M168.026,239.376l0.005,0.006c0,0,0.005-0.039,0.005-0.045
		C168.034,239.351,168.026,239.363,168.026,239.376z"/>
	<linearGradient id="SVGID_4_" gradientUnits="userSpaceOnUse" x1="171.3794" y1="185.9854" x2="191.6659" y2="197.6978">
		<stop  offset="0" style="stop-color:#FFFFFF"/>
		<stop  offset="0.2927" style="stop-color:#FDFDFD"/>
		<stop  offset="0.4303" style="stop-color:#F5F5F5"/>
		<stop  offset="0.5355" style="stop-color:#E8E8E8"/>
		<stop  offset="0.6243" style="stop-color:#D6D6D6"/>
		<stop  offset="0.7027" style="stop-color:#BEBEBE"/>
		<stop  offset="0.7738" style="stop-color:#A1A1A1"/>
		<stop  offset="0.8394" style="stop-color:#7E7E7E"/>
		<stop  offset="0.9007" style="stop-color:#555555"/>
		<stop  offset="0.9563" style="stop-color:#282828"/>
		<stop  offset="1" style="stop-color:#000000"/>
	</linearGradient>
	<path fill="#FFFFFF" stroke="url(#SVGID_4_)" stroke-miterlimit="10" d="M199.922,157.865c2.23-19.293-10.687-1.805-10.687-1.805
		c-8.313,14.893-9.946,29.709-9.946,29.709c-0.891,12-12.768,31.368-12.768,31.368c-1.931,5.494-0.223,12.639-0.223,12.639
		c1.929,2.009,2.005,5.578,2.005,5.578c0.031,0.703,0.021,1.32-0.008,1.903c0.307-2.511,0.826-6.72,1.198-9.713
		c0,0-1.282-3.685,1.446-7.859c0,0,3.137-6.362,7.962-10.771c0,0,5.488-8.236,7.568-15.755c0,0,6.866-20.85,10.41-24.958
		L199.922,157.865z"/>
</g>
<path fill="#FFFFFF" d="M238.728,87.846c0,0,6.641-6.237-0.593-4.917l-3.286,0.417c0,0-3.323-0.561-4.361-4.825
	c0,0-7.568-6.36-17.296,3.976c0,0-11.578,12.359-4.154,15.108c0,0,12.247-2.097,15.14,1.879c0,0,9.173,0.578,17.024-3.834
	C241.201,95.65,242.653,93.844,238.728,87.846z"/>
<linearGradient id="SVGID_5_" gradientUnits="userSpaceOnUse" x1="263.2031" y1="28.6387" x2="273.235" y2="37.0564">
	<stop  offset="0.0683" style="stop-color:#88BAD3"/>
	<stop  offset="0.2106" style="stop-color:#5A96BD"/>
	<stop  offset="0.3426" style="stop-color:#377DAD"/>
	<stop  offset="0.4492" style="stop-color:#226FA5"/>
	<stop  offset="0.5171" style="stop-color:#1C6AA2"/>
	<stop  offset="0.6853" style="stop-color:#1B679F"/>
	<stop  offset="0.7626" style="stop-color:#1B5F96"/>
	<stop  offset="0.8214" style="stop-color:#1A5386"/>
	<stop  offset="0.8707" style="stop-color:#184272"/>
	<stop  offset="0.9142" style="stop-color:#162F5A"/>
	<stop  offset="0.9535" style="stop-color:#131C41"/>
	<stop  offset="0.9889" style="stop-color:#0E0C2A"/>
	<stop  offset="1" style="stop-color:#0D0722"/>
</linearGradient>
<ellipse fill="url(#SVGID_5_)" cx="268.218" cy="32.848" rx="6.597" ry="6.479"/>
<linearGradient id="SVGID_6_" gradientUnits="userSpaceOnUse" x1="247.7744" y1="18.063" x2="256.9903" y2="27.2789">
	<stop  offset="0.0683" style="stop-color:#88BAD3"/>
	<stop  offset="0.2106" style="stop-color:#5A96BD"/>
	<stop  offset="0.3426" style="stop-color:#377DAD"/>
	<stop  offset="0.4492" style="stop-color:#226FA5"/>
	<stop  offset="0.5171" style="stop-color:#1C6AA2"/>
	<stop  offset="0.6853" style="stop-color:#1B679F"/>
	<stop  offset="0.7626" style="stop-color:#1B5F96"/>
	<stop  offset="0.8214" style="stop-color:#1A5386"/>
	<stop  offset="0.8707" style="stop-color:#184272"/>
	<stop  offset="0.9142" style="stop-color:#162F5A"/>
	<stop  offset="0.9535" style="stop-color:#131C41"/>
	<stop  offset="0.9889" style="stop-color:#0E0C2A"/>
	<stop  offset="1" style="stop-color:#0D0722"/>
</linearGradient>
<path fill="url(#SVGID_6_)" d="M259.001,22.669c0,3.543-2.956,6.41-6.62,6.41c-3.658,0-6.62-2.867-6.62-6.41
	c0-3.538,2.962-6.408,6.62-6.408C256.045,16.261,259.001,19.131,259.001,22.669z"/>
<linearGradient id="SVGID_7_" gradientUnits="userSpaceOnUse" x1="231.792" y1="11.334" x2="240.1281" y2="19.6701">
	<stop  offset="0.0683" style="stop-color:#88BAD3"/>
	<stop  offset="0.2106" style="stop-color:#5A96BD"/>
	<stop  offset="0.3426" style="stop-color:#377DAD"/>
	<stop  offset="0.4492" style="stop-color:#226FA5"/>
	<stop  offset="0.5171" style="stop-color:#1C6AA2"/>
	<stop  offset="0.6853" style="stop-color:#1B679F"/>
	<stop  offset="0.7626" style="stop-color:#1B5F96"/>
	<stop  offset="0.8214" style="stop-color:#1A5386"/>
	<stop  offset="0.8707" style="stop-color:#184272"/>
	<stop  offset="0.9142" style="stop-color:#162F5A"/>
	<stop  offset="0.9535" style="stop-color:#131C41"/>
	<stop  offset="0.9889" style="stop-color:#0E0C2A"/>
	<stop  offset="1" style="stop-color:#0D0722"/>
</linearGradient>
<path fill="url(#SVGID_7_)" d="M241.972,15.499c0,3.192-2.689,5.776-6.012,5.776c-3.323,0-6.012-2.584-6.012-5.776
	c0-3.184,2.688-5.771,6.012-5.771C239.282,9.728,241.972,12.315,241.972,15.499z"/>
</svg>
